 <svg width="20" height="20" viewBox="0 0 20 20" fill="#5243c2" xmlns="http://www.w3.org/2000/svg">
  <path
    d="M3.33 12.5L3.33 7.08C3.33 6.08 3.72 5.13 4.43 4.43C5.13 3.72 6.08 3.33 7.08 3.33C8.07 3.33 9.03 3.72 9.73 4.43C10.43 5.13 10.83 6.08 10.83 7.08L10.83 12.91C10.83 13.46 11.05 13.99 11.44 14.38C11.83 14.78 12.36 15 12.91 15C13.46 15 13.99 14.78 14.38 14.38C14.78 13.99 15 13.46 15 12.91L15 7.35C14.44 7.16 13.97 6.77 13.67 6.26C13.37 5.75 13.26 5.15 13.36 4.57C13.46 3.99 13.77 3.46 14.22 3.08C14.67 2.7 15.24 2.49 15.83 2.49C16.42 2.49 16.99 2.7 17.44 3.08C17.89 3.46 18.19 3.99 18.29 4.57C18.39 5.15 18.28 5.75 17.99 6.26C17.69 6.77 17.22 7.16 16.66 7.35L16.66 12.91C16.66 13.91 16.27 14.86 15.56 15.56C14.86 16.27 13.91 16.66 12.91 16.66C11.92 16.66 10.96 16.27 10.26 15.56C9.56 14.86 9.16 13.91 9.16 12.91L9.16 7.08C9.16 6.53 8.94 6 8.55 5.61C8.16 5.21 7.63 5 7.08 5C6.53 5 6 5.21 5.61 5.61C5.21 6 5 6.53 5 7.08L5 12.5L7.5 12.5L4.16 16.66L0.83 12.5L3.33 12.5ZM15.83 5.83C16.05 5.83 16.26 5.74 16.42 5.58C16.57 5.43 16.66 5.22 16.66 5C16.66 4.77 16.57 4.56 16.42 4.41C16.26 4.25 16.05 4.16 15.83 4.16C15.61 4.16 15.4 4.25 15.24 4.41C15.08 4.56 15 4.77 15 5C15 5.22 15.08 5.43 15.24 5.58C15.4 5.74 15.61 5.83 15.83 5.83Z"
    fill-opacity="1.000000" fill-rule="nonzero" />
</svg>