<svg width="20" height="20" viewBox="0 0 20 20" fill="#5243c2" xmlns="http://www.w3.org/2000/svg">
  <path
    d="M10 18.33C5.39 18.33 1.66 14.6 1.66 10C1.66 5.39 5.39 1.66 10 1.66C14.6 1.66 18.33 5.39 18.33 10C18.33 14.6 14.6 18.33 10 18.33ZM10 16.66C11.76 16.66 13.46 15.96 14.71 14.71C15.96 13.46 16.66 11.76 16.66 10C16.66 8.23 15.96 6.53 14.71 5.28C13.46 4.03 11.76 3.33 10 3.33C8.23 3.33 6.53 4.03 5.28 5.28C4.03 6.53 3.33 8.23 3.33 10C3.33 11.76 4.03 13.46 5.28 14.71C6.53 15.96 8.23 16.66 10 16.66ZM5.83 10.83L7.5 10.83C7.5 11.49 7.76 12.13 8.23 12.6C8.7 13.07 9.33 13.33 10 13.33C10.66 13.33 11.29 13.07 11.76 12.6C12.23 12.13 12.5 11.49 12.5 10.83L14.16 10.83C14.16 11.93 13.72 12.99 12.94 13.77C12.16 14.56 11.1 15 10 15C8.89 15 7.83 14.56 7.05 13.77C6.27 12.99 5.83 11.93 5.83 10.83ZM6.66 9.16C6.33 9.16 6.01 9.03 5.78 8.8C5.54 8.56 5.41 8.24 5.41 7.91C5.41 7.58 5.54 7.26 5.78 7.03C6.01 6.79 6.33 6.66 6.66 6.66C6.99 6.66 7.31 6.79 7.55 7.03C7.78 7.26 7.91 7.58 7.91 7.91C7.91 8.24 7.78 8.56 7.55 8.8C7.31 9.03 6.99 9.16 6.66 9.16ZM13.33 9.16C13 9.16 12.68 9.03 12.44 8.8C12.21 8.56 12.08 8.24 12.08 7.91C12.08 7.58 12.21 7.26 12.44 7.03C12.68 6.79 13 6.66 13.33 6.66C13.66 6.66 13.98 6.79 14.21 7.03C14.45 7.26 14.58 7.58 14.58 7.91C14.58 8.24 14.45 8.56 14.21 8.8C13.98 9.03 13.66 9.16 13.33 9.16Z"
    fill-opacity="1.000000" fill-rule="nonzero" />
</svg>