<svg width="20" height="20" viewBox="0 0 20 20" fill="#5243c2" xmlns="http://www.w3.org/2000/svg">
  <path
    d="M17.5 13.68L17.5 16.62C17.5 16.84 17.42 17.04 17.27 17.19C17.13 17.35 16.93 17.44 16.72 17.46C16.36 17.48 16.06 17.5 15.83 17.5C8.46 17.5 2.5 11.53 2.5 4.16C2.5 3.93 2.51 3.63 2.53 3.27C2.55 3.06 2.64 2.86 2.8 2.72C2.95 2.57 3.15 2.5 3.37 2.5L6.31 2.5C6.42 2.5 6.51 2.53 6.59 2.6C6.67 2.67 6.72 2.77 6.73 2.87C6.75 3.06 6.76 3.21 6.78 3.33C6.95 4.49 7.28 5.61 7.79 6.66C7.87 6.83 7.81 7.03 7.66 7.14L5.87 8.42C6.97 10.98 9.01 13.03 11.57 14.12L12.85 12.33C12.91 12.26 12.98 12.2 13.07 12.18C13.16 12.16 13.25 12.17 13.33 12.21C14.38 12.71 15.51 13.05 16.66 13.21C16.78 13.23 16.93 13.25 17.12 13.26C17.22 13.27 17.32 13.32 17.39 13.4C17.46 13.48 17.5 13.58 17.5 13.68L17.5 13.68Z"
    fill-opacity="1.000000" fill-rule="nonzero" />
</svg>