<svg width="14.000000" height="20.000000" viewBox="0 0 14 20" fill="none"
  xmlns="http://www.w3.org/2000/svg" xmlns:xlink="http://www.w3.org/1999/xlink">
  <path id="Vector"
    d="M8.75 0C4.77 2.45 5.25 9.37 5.25 9.37C5.25 9.37 3.5 8.75 3.5 5.93C1.41 7.23 0 9.72 0 12.5C0 16.64 3.13 20 7 20C10.86 20 14 16.64 14 12.5C14 6.4 8.75 5.15 8.75 0ZM7.61 17.41C6.2 17.79 4.78 16.87 4.43 15.36C4.08 13.86 4.93 12.33 6.34 11.95C9.74 11.05 10.16 9 10.16 9C10.16 9 11.85 16.28 7.61 17.41Z"
    fill="#FFFFFF" fill-opacity="1.000000" fill-rule="nonzero" />
</svg>
