<svg width="24.000000" height="24.000000" viewBox="0 0 24 24" fill="none" xmlns="http://www.w3.org/2000/svg"
  xmlns:xlink="http://www.w3.org/1999/xlink">
  <path id="Vector"
    d="M12 20C14.12 20 16.15 19.15 17.65 17.65C19.15 16.15 20 14.12 20 12C20 9.87 19.15 7.84 17.65 6.34C16.15 4.84 14.12 4 12 4C9.87 4 7.84 4.84 6.34 6.34C4.84 7.84 4 9.87 4 12C4 14.12 4.84 16.15 6.34 17.65C7.84 19.15 9.87 20 12 20ZM12 22C6.47 22 2 17.52 2 12C2 6.47 6.47 2 12 2C17.52 2 22 6.47 22 12C22 17.52 17.52 22 12 22ZM12 14C11.46 14 10.96 13.78 10.58 13.41C10.21 13.03 10 12.53 10 12C10 11.46 10.21 10.96 10.58 10.58C10.96 10.21 11.46 10 12 10C12.53 10 13.03 10.21 13.41 10.58C13.78 10.96 14 11.46 14 12C14 12.53 13.78 13.03 13.41 13.41C13.03 13.78 12.53 14 12 14Z"
    fill="#1F2939" fill-opacity="1.000000" fill-rule="nonzero" />
</svg>