<svg width="16.000000" height="14.334229" viewBox="0 0 16 14.3342" fill="none"
  xmlns="http://www.w3.org/2000/svg" xmlns:xlink="http://www.w3.org/1999/xlink">
  <path id="Vector"
    d="M15.44 0.69C15.03 0.21 14.48 -0.06 13.87 0.01L2.07 0.01C0.84 0.01 -0.18 1.16 0.02 2.39L1.66 12.62C1.79 13.65 2.68 14.33 3.7 14.33L12.3 14.33C13.32 14.33 14.21 13.58 14.35 12.62L15.98 2.39C16.05 1.78 15.85 1.16 15.44 0.69ZM9.43 8.87C9.23 8.67 9.02 8.53 8.75 8.46L9.3 5.73L7.93 5.46L7.32 8.4C7.05 8.46 6.77 8.67 6.5 8.87L3.09 5.53C5.75 2.87 10.05 2.87 12.71 5.53L9.43 8.87Z"
    fill="#FFFFFF" fill-opacity="1.000000" fill-rule="nonzero" />
</svg>