<svg width="16.000000" height="16.000000" viewBox="0 0 16 16" fill="none"
  xmlns="http://www.w3.org/2000/svg" xmlns:xlink="http://www.w3.org/1999/xlink">
  <path id="Vector"
    d="M8 0C3.58 0 0 3.58 0 8C0 12.41 3.58 16 8 16C12.41 16 16 12.41 16 8C16 3.58 12.41 0 8 0ZM11.8 12.13C11.67 12.26 11.5 12.33 11.33 12.33C11.16 12.33 10.99 12.26 10.86 12.13L7.52 8.8C7.4 8.68 7.33 8.51 7.33 8.33L7.33 4C7.33 3.63 7.63 3.33 8 3.33C8.36 3.33 8.66 3.63 8.66 4L8.66 8.05L11.8 11.19C12.06 11.45 12.06 11.87 11.8 12.13Z"
    fill="#FFFFFF" fill-opacity="1.000000" fill-rule="nonzero"
  />
</svg>